<svg xmlns="http://www.w3.org/2000/svg" xmlns:xlink="http://www.w3.org/1999/xlink" id="Layer_1" width="264" height="162" x="0" y="0" enable-background="new 0 0 264 162" version="1.1" viewBox="0 0 264 162" xml:space="preserve"><style type="text/css">.st0{fill:#00af89}.st1,.st2{fill:#fff}.st2{stroke:#e5e5e5;stroke-miterlimit:10}.st3{fill:#e5e5e5}.st4{fill:none;stroke:#e5e5e5;stroke-miterlimit:10}.st5{fill:#9b9a9a}.st6{fill:none;stroke:#e5e5e5;stroke-linejoin:round;stroke-miterlimit:10}</style><rect width="137.6" height="105" x="62.3" y="28.1" class="st0"/><g><path d="M73.1,57v64.4h45.3V78.5h25.3v42.9h45.3V57H73.1z M94.3,107.6H80.9V94.3h13.3V107.6z M94.3,91.9H80.9V78.5 h13.3V91.9z M109.9,107.6H96.6V94.3h13.3V107.6z M109.9,91.9H96.6V78.5h13.3V91.9z M164.3,107.6h-13.3V94.3h13.3V107.6z M164.3,91.9h-13.3V78.5h13.3V91.9z M179.9,107.6h-13.3V94.3h13.3V107.6z M179.9,91.9h-13.3V78.5h13.3V91.9z" class="st1"/><rect width="116" height="5.7" x="73.1" y="48.5" class="st1"/><rect width="116" height="5.7" x="73.1" y="39.9" class="st1"/></g><rect width="137.6" height="1.7" x="62.3" y="124" class="st1"/><g><g><rect width="35.3" height="12.7" x="6.7" y="7.4" class="st2"/><rect width="2.3" height="5.7" x="42" y="11.1" class="st3"/></g><rect width="5.2" height="9.2" x="8.2" y="9.1" class="st3"/><rect width="5.2" height="9.2" x="14.5" y="9.1" class="st3"/><rect width="5.2" height="9.2" x="21" y="9.1" class="st3"/></g><circle cx="252.7" cy="12.1" r="6.2" class="st3"/><rect width="5.3" height="7.7" x="239.3" y="9.1" class="st3"/><rect width="5.3" height="7.7" x="233" y="9.1" class="st3"/><rect width="5.3" height="7.7" x="214" y="143.3" class="st3"/><rect width="5.3" height="7.7" x="207.6" y="143.3" class="st3"/><rect width="5.3" height="7.7" x="50.4" y="143.3" class="st3"/><rect width="5.3" height="7.7" x="39" y="143.3" class="st3"/><line x1="73.1" x2="189.1" y1="148" y2="148" class="st4"/><line x1="132" x2="132" y1="143.1" y2="152.9" class="st4"/><line x1="189.1" x2="189.1" y1="144.3" y2="151.7" class="st4"/><line x1="73.1" x2="73.1" y1="144.3" y2="151.7" class="st4"/><line x1="86" x2="86" y1="145.5" y2="150.5" class="st4"/><line x1="100.7" x2="100.7" y1="145.5" y2="150.5" class="st4"/><line x1="115.3" x2="115.3" y1="145.5" y2="150.5" class="st4"/><line x1="145.8" x2="145.8" y1="145.5" y2="150.5" class="st4"/><line x1="160.5" x2="160.5" y1="145.5" y2="150.5" class="st4"/><line x1="175.2" x2="175.2" y1="145.5" y2="150.5" class="st4"/><g><rect width="3.2" height="4.7" x="113.8" y="154.1" class="st5"/><polygon points="113.8 154.1 115.3 152.3 116.9 154.1" class="st5"/></g><g><g><polyline points="34.3 147.1 31.5 147.1 34.3 144.3 31.5 147.1 34.3 147.1 31.5 149.9" class="st6"/></g><polygon points="33.9 149.5 32.1 151.7 30.3 149.5" class="st3"/></g><line x1="48.9" x2="45.9" y1="143.2" y2="151.1" class="st6"/></svg>