<svg xmlns="http://www.w3.org/2000/svg" xmlns:xlink="http://www.w3.org/1999/xlink" id="Layer_1" x="0" y="0" enable-background="new 0 0 264 162" version="1.1" viewBox="0 0 264 162" xml:space="preserve"><style type="text/css">.st0,.st1{fill:none;stroke:#e5e5e5;stroke-miterlimit:10}.st1{stroke:#9b9a9a}.st2{fill:#e5e5e5}.st3{fill:#9b9a9a}.st4{fill:#00af89}.st5{fill:#fff}.st6{fill:none;stroke:#fff;stroke-width:5;stroke-miterlimit:10}</style><line x1="2" x2="262" y1="10.5" y2="10.5" class="st0"/><line x1="2" x2="262" y1="24.8" y2="24.8" class="st0"/><g><rect width="9.3" height="9.3" x="6.9" y="32.8" class="st1"/><rect width="9.3" height="9.3" x="16.2" y="32.8" class="st1"/><rect width="9.3" height="9.3" x="6.9" y="42.1" class="st1"/><rect width="9.3" height="9.3" x="16.2" y="42.1" class="st1"/><rect width="9.3" height="9.3" x="6.9" y="51.4" class="st1"/><rect width="9.3" height="9.3" x="16.2" y="51.4" class="st1"/><rect width="9.3" height="9.3" x="6.9" y="60.8" class="st1"/><rect width="9.3" height="9.3" x="16.2" y="60.8" class="st1"/><rect width="9.3" height="9.3" x="6.9" y="70.1" class="st1"/><rect width="9.3" height="9.3" x="16.2" y="70.1" class="st1"/><rect width="9.3" height="9.3" x="6.9" y="79.4" class="st1"/><rect width="9.3" height="9.3" x="16.2" y="79.4" class="st1"/><rect width="9.3" height="9.3" x="6.9" y="88.8" class="st1"/><rect width="9.3" height="9.3" x="16.2" y="88.8" class="st1"/><rect width="9.3" height="9.3" x="6.9" y="98.1" class="st1"/><rect width="9.3" height="9.3" x="16.2" y="98.1" class="st1"/><rect width="9.3" height="9.3" x="6.9" y="107.4" class="st1"/><rect width="9.3" height="9.3" x="16.2" y="107.4" class="st1"/><rect width="9.3" height="9.3" x="6.9" y="116.8" class="st1"/><rect width="9.3" height="9.3" x="16.2" y="116.8" class="st1"/></g><rect width="9.3" height="9.3" x="3.2" y="12.7" class="st2"/><rect width="4.7" height="4.7" x="3.2" y="3.4" class="st2"/><rect width="4.7" height="4.7" x="10.2" y="3.4" class="st2"/><rect width="4.7" height="4.7" x="16.9" y="3.4" class="st2"/><rect width="4.7" height="4.7" x="249.2" y="3.4" class="st2"/><rect width="4.7" height="4.7" x="255.9" y="3.4" class="st2"/><rect width="9.3" height="9.3" x="14.6" y="12.7" class="st2"/><rect width="9.3" height="9.3" x="239.9" y="12.7" class="st2"/><rect width="9.3" height="9.3" x="228.9" y="12.7" class="st2"/><rect width="9.3" height="9.3" x="251.2" y="12.7" class="st2"/><g><path d="M73.5,13.7V21H26.6v-7.3H73.5 M74.5,12.7H25.6V22h48.9V12.7L74.5,12.7z" class="st2"/></g><g><path d="M117.8,13.7V21H76.9v-7.3H117.8 M118.8,12.7H75.9V22h42.9V12.7L118.8,12.7z" class="st2"/></g><g><path d="M162.5,13.7V21h-40.9v-7.3H162.5 M163.5,12.7h-42.9V22h42.9V12.7L163.5,12.7z" class="st2"/></g><rect width="50.9" height="32.3" x="209.7" y="30.3" class="st2"/><rect width="50.9" height="5.7" x="209.7" y="30.3" class="st3"/><g><rect width="6.2" height="6.2" x="212.2" y="38.5" class="st3"/><rect width="6.2" height="2.5" x="239.9" y="38.5" class="st3"/><rect width="6.2" height="2.5" x="239.9" y="42.2" class="st3"/><g><path d="M237.2,39.5v4.2H221v-4.2H237.2 M238.2,38.5H220v6.2h18.2V38.5L238.2,38.5z" class="st3"/></g></g><g><rect width="6.2" height="6.2" x="212.2" y="46.5" class="st3"/><rect width="6.2" height="2.5" x="239.9" y="46.5" class="st3"/><rect width="6.2" height="2.5" x="239.9" y="50.2" class="st3"/><g><path d="M237.2,47.5v4.2H221v-4.2H237.2 M238.2,46.5H220v6.2h18.2V46.5L238.2,46.5z" class="st3"/></g></g><rect width="50.9" height="32.3" x="209.7" y="66.6" class="st2"/><rect width="50.9" height="5.7" x="209.7" y="66.6" class="st3"/><g><path d="M257.2,75.8V80h-44.1v-4.2H257.2 M258.2,74.8h-46.1V81h46.1V74.8L258.2,74.8z" class="st3"/></g><g><path d="M257.2,81v4.2h-44.1V81H257.2 M258.2,80h-46.1v6.2h46.1V80L258.2,80z" class="st3"/></g><g><path d="M257.2,86.2v4.2h-44.1v-4.2H257.2 M258.2,85.2h-46.1v6.2h46.1V85.2L258.2,85.2z" class="st3"/></g><g><path d="M257.2,91.3v4.2h-44.1v-4.2H257.2 M258.2,90.3h-46.1v6.2h46.1V90.3L258.2,90.3z" class="st3"/></g><ellipse cx="218.3" cy="85.7" class="st1" rx="0" ry="10.2"/><rect width="108" height="82.4" x="69.5" y="47.5" class="st4"/><circle cx="123.5" cy="88.7" r="6.6" class="st5"/><circle cx="116.9" cy="106.2" r="6.6" class="st5"/><circle cx="154.5" cy="80.3" r="6.6" class="st5"/><circle cx="93.1" cy="81.5" r="6.6" class="st5"/><circle cx="141.7" cy="114.1" r="6.6" class="st5"/><circle cx="123.5" cy="88.7" r="18.2" class="st6"/><circle cx="123.5" cy="88.7" r="31.7" class="st6"/></svg>