<svg xmlns="http://www.w3.org/2000/svg" xmlns:xlink="http://www.w3.org/1999/xlink" x="0" y="0" enable-background="new 0 0 264 162" version="1.1" viewBox="0 0 264 162" xml:space="preserve"><style type="text/css">.st0{display:none}.st1{display:inline}.st2{fill:#fff}.st3,.st4,.st5{fill:#e5e5e5}.st4{opacity:.5;enable-background:new}.st5{stroke:#e5e5e5}.st6{fill:#9b9b9b}.st7{fill:#4470b6}.st8{fill:#d0d1d1}.st10,.st9{fill:none;stroke-miterlimit:10}.st9{stroke:#e5e5e5}.st10{stroke:#d02227}.st11{fill:#d02227}</style><g id="Layer_1" class="st0"><g class="st1"><path d="M24.8,151.4l-11.5,10l-12.9-9.6V0.5h263v151.7l-9,6.7V42.5h-39v112.6l-4.4-3.7l-7.6,5.3V42.5h-155v110.8 l-9.8,8L24.8,151.4z" class="st2"/><path d="M263,1v151l-8,6V42h-40v112l-3.3-2.8l-0.6-0.5l-0.6,0.4l-6.5,4.6V42H48v111.1l-9.3,7.7l-13.3-9.6l-0.6-0.5 l-0.6,0.5l-10.9,9.5L1,151.5V1L263,1L263,1z M264,0H0v152l13.4,10l11.5-10l13.9,10l10.2-8.4V43h154v114.7l8.1-5.7l4.9,4.2V43h38 v116.9l10-7.4V0L264,0z M203,43H49v110.6l2.1-1.6l12.6,10l13.8-10l14.2,10l13-10l13,10l13.8-10l12.1,10l13.4-10l14.2,10l13-10 l13,10l5.8-4.3L203,43L203,43z" class="st3"/><path d="M254,43h-38v113.2l7.6,5.8l13.8-10l13.9,10l2.7-2.1V43z" class="st4"/><path d="M2,14.5h260" class="st5"/><path d="M232.5,5h26v6h-26V5z M208.5,5h22v6h-22V5z M142,6v4H50V6H142z M143,5H49v6h94V5z M184.5,5h22v6h-22V5z M161.5,5h13v6h-13V5z M176.5,5h6v6h-6V5z M153.5,5h6v6h-6V5z M9,5h32v6H9V5z M52,7h2v2h-2V7z M11,36c0-7.7,6.3-14,14-14 s14,6.3,14,14s-6.3,14-14,14S11,43.7,11,36z M38,107V72H13v35H38z M38,59v-5H13v5H38z" class="st3"/></g><g class="st1"><path d="M123.8,68H85.6v7.8h38.1L123.8,68L123.8,68z M180.5,103v-8.8h-50.8v8.8H180.5z M90.8,80.6H69.9v8.6h20.8V80.6 z M189.3,88.4v-7.8h-37.7v7.8H189.3z M100.7,94.1H75v7.8h25.7V94.1z M175.2,68H129v7.8h46.2V68z" class="st6"/><path d="M94.7,80.6v9.2h51.6v-9.2L94.7,80.6z" class="st7"/></g><g class="st1"><path d="M94,94h75v44H94V94z" class="st2"/><path d="M169,94h-31v44h31V94z M150.8,118.1l5.9,9.7l3.2-3l4.8,6.1l-21.1,0l6.2-12.8H150.8z" class="st7"/><g><path d="M-102,100h-18c-0.6,0-1,0.2-1,0.5l0,0c0,0.3,0.4,0.5,1,0.5h18c0.6,0,1-0.2,1-0.5l0,0 C-101,100.2-101.4,100-102,100z" class="st8" transform="scale(-1 1)"/><path d="M-102,104h-18c-0.6,0-1,0.2-1,0.5l0,0c0,0.3,0.4,0.5,1,0.5h18c0.6,0,1-0.2,1-0.5l0,0 C-101,104.2-101.4,104-102,104z" class="st8" transform="scale(-1 1)"/><path d="M-102,108h-18c-0.6,0-1,0.2-1,0.5l0,0c0,0.3,0.4,0.5,1,0.5h18c0.6,0,1-0.2,1-0.5l0,0 C-101,108.2-101.4,108-102,108z" class="st8" transform="scale(-1 1)"/><path d="M-102,112h-26c-0.6,0-1,0.2-1,0.5l0,0c0,0.3,0.4,0.5,1,0.5h26c0.6,0,1-0.2,1-0.5l0,0 C-101,112.2-101.4,112-102,112z" class="st8" transform="scale(-1 1)"/><path d="M-102,116h-26c-0.6,0-1,0.2-1,0.5l0,0c0,0.3,0.4,0.5,1,0.5h26c0.6,0,1-0.2,1-0.5l0,0 C-101,116.2-101.4,116-102,116z" class="st8" transform="scale(-1 1)"/><path d="M-102,120h-26c-0.6,0-1,0.2-1,0.5l0,0c0,0.3,0.4,0.5,1,0.5h26c0.6,0,1-0.2,1-0.5l0,0 C-101,120.2-101.4,120-102,120z" class="st8" transform="scale(-1 1)"/><path d="M-102,124h-26c-0.6,0-1,0.2-1,0.5l0,0c0,0.3,0.4,0.5,1,0.5h26c0.6,0,1-0.2,1-0.5l0,0 C-101,124.2-101.4,124-102,124z" class="st8" transform="scale(-1 1)"/><path d="M-102,128h-26c-0.6,0-1,0.2-1,0.5l0,0c0,0.3,0.4,0.5,1,0.5h26c0.6,0,1-0.2,1-0.5l0,0 C-101,128.2-101.4,128-102,128z" class="st8" transform="scale(-1 1)"/></g></g></g><g id="Layer_2"><g><rect width="93" height="5" x="4.8" y="5.5" class="st2"/><path d="M97.2,6v4h-92V6H97.2 M98.2,5h-94v6h94V5L98.2,5z" class="st3"/></g><polygon points="177.7 8 176.4 8 109.6 8 108.2 8 106 14 111.8 14 174.2 14 180 14" class="st3"/><polygon points="256.5 8 255.2 8 188.3 8 187 8 184.7 14 190.6 14 252.9 14 258.8 14" class="st3"/><line x1="2" x2="262" y1="14.5" y2="14.5" class="st9"/><line x1="2" x2="262" y1="32.8" y2="32.8" class="st9"/><g><circle cx="8.9" cy="22.6" r="3.6" class="st10"/><line x1="11.6" x2="15" y1="25" y2="28.5" class="st10"/></g><rect width="57.6" height="9.5" x="20.9" y="19" class="st3"/><rect width="69.2" height="32.7" x="4.3" y="37" class="st3"/><rect width="90.1" height="56.8" x="4.3" y="72.5" class="st3"/><rect width="106.5" height="56.8" x="97" y="72.5" class="st11"/><rect width="52.4" height="56.8" x="206.3" y="72.5" class="st3"/><rect width="36.5" height="25.3" x="4.3" y="132.2" class="st3"/><rect width="62.3" height="25.3" x="43.7" y="132.2" class="st3"/><rect width="18.1" height="25.3" x="109.3" y="132.2" class="st3"/><rect width="18.1" height="25.3" x="169.1" y="132.2" class="st3"/><rect width="18.1" height="25.3" x="189.8" y="132.2" class="st3"/><rect width="48.1" height="25.3" x="210.6" y="132.2" class="st3"/><rect width="36" height="25.3" x="130" y="132.2" class="st3"/><rect width="36.5" height="32.7" x="115.2" y="37" class="st3"/><rect width="36.5" height="32.7" x="76.1" y="37" class="st3"/><rect width="56" height="32.7" x="154.6" y="37" class="st3"/><rect width="45.4" height="32.7" x="213.3" y="37" class="st3"/><path d="M102.4,115.4l9.5-9.5l12.8,12.8l26.1-26.1l31.8,31.8h-80.3L102.4,115.4z" class="st2"/></g></svg>