<svg xmlns="http://www.w3.org/2000/svg" xmlns:xlink="http://www.w3.org/1999/xlink" id="Layer_2" x="0" y="0" enable-background="new 0 0 264 162" version="1.1" viewBox="0 0 264 162" xml:space="preserve"><style type="text/css">.st0{fill:#fff}.st1{fill:#e5e5e5}.st2,.st3{fill:none;stroke:#e5e5e5;stroke-miterlimit:10}.st3{stroke:#d02227}.st4{fill:#d02227}</style><g><rect width="93" height="5" x="166.2" y="5.5" class="st0"/><path d="M258.8,6v4h-92V6H258.8 M259.8,5h-94v6h94V5L259.8,5z" class="st1"/></g><polygon points="86.3 8 87.6 8 154.4 8 155.8 8 158 14 152.2 14 89.8 14 84 14" class="st1"/><polygon points="7.5 8 8.8 8 75.7 8 77 8 79.3 14 73.4 14 11.1 14 5.2 14" class="st1"/><line x1="262" x2="2" y1="14.5" y2="14.5" class="st2"/><line x1="262" x2="2" y1="32.8" y2="32.8" class="st2"/><g><circle cx="255.1" cy="22.6" r="3.6" class="st3"/><line x1="252.4" x2="249" y1="25" y2="28.5" class="st3"/></g><rect width="57.6" height="9.5" x="185.5" y="19" class="st1"/><rect width="69.2" height="32.7" x="190.5" y="37" class="st1"/><rect width="90.1" height="56.8" x="169.7" y="72.5" class="st1"/><rect width="106.5" height="56.8" x="60.4" y="72.5" class="st4"/><rect width="52.4" height="56.8" x="5.2" y="72.5" class="st1"/><rect width="36.5" height="25.3" x="223.3" y="132.2" class="st1"/><rect width="62.3" height="25.3" x="158" y="132.2" class="st1"/><rect width="18.1" height="25.3" x="136.6" y="132.2" class="st1"/><rect width="18.1" height="25.3" x="76.8" y="132.2" class="st1"/><rect width="18.1" height="25.3" x="56.1" y="132.2" class="st1"/><rect width="48.1" height="25.3" x="5.2" y="132.2" class="st1"/><rect width="36" height="25.3" x="97.9" y="132.2" class="st1"/><rect width="36.5" height="32.7" x="112.3" y="37" class="st1"/><rect width="36.5" height="32.7" x="151.4" y="37" class="st1"/><rect width="56" height="32.7" x="53.4" y="37" class="st1"/><rect width="45.4" height="32.7" x="5.2" y="37" class="st1"/><path d="M161.7,124.3H81.4l31.8-31.8l26.1,26.1l12.8-12.8l9.5,9.5L161.7,124.3z" class="st0"/></svg>