<svg xmlns="http://www.w3.org/2000/svg" xmlns:xlink="http://www.w3.org/1999/xlink" id="Layer_1" x="0" y="0" enable-background="new 0 0 264 162" version="1.1" viewBox="0 0 264 162" xml:space="preserve"><style type="text/css">.st0{fill:#fff}.st1{fill:#e5e5e5}.st2{fill:none;stroke:#e5e5e5;stroke-miterlimit:10}.st3{fill:#d02227}.st4{fill:#9b9a9a}</style><g><rect width="93" height="5" x="4.8" y="5.5" class="st0"/><path d="M97.2,6v4h-92V6H97.2 M98.2,5h-94v6h94V5L98.2,5z" class="st1"/></g><polygon points="177.7 8 176.4 8 109.6 8 108.2 8 106 14 111.8 14 174.2 14 180 14" class="st1"/><polygon points="256.5 8 255.2 8 188.3 8 187 8 184.7 14 190.6 14 252.9 14 258.8 14" class="st1"/><line x1="2" x2="262" y1="14.5" y2="14.5" class="st2"/><rect width="106.5" height="56.8" x="44" y="48.4" class="st3"/><path d="M49.3,91.2l9.5-9.5l12.8,12.8l26.1-26.1l31.8,31.8H49.3L49.3,91.2z" class="st0"/><circle cx="55" cy="32.3" r="11.9" class="st1"/><g><rect width="76.2" height="7" x="70.7" y="27.4" class="st4"/><rect width="22.3" height="1.7" x="70.7" y="35.5" class="st4"/><rect width="28.2" height="1.7" x="95" y="35.5" class="st4"/></g><rect width="23.3" height="23.3" x="44" y="107.8" class="st1"/><rect width="79.8" height="1.8" x="70.7" y="107.8" class="st1"/><rect width="79.8" height="1.8" x="70.7" y="114" class="st1"/><rect width="79.8" height="1.8" x="70.7" y="120.2" class="st1"/><rect width="79.8" height="1.8" x="70.7" y="126.4" class="st1"/><rect width="106.5" height="1.8" x="44" y="134.4" class="st1"/><rect width="106.5" height="1.8" x="44" y="140.6" class="st1"/><rect width="106.5" height="1.8" x="44" y="146.8" class="st1"/><rect width="106.5" height="1.8" x="44" y="153" class="st1"/><g><rect width="57.3" height="1.8" x="155.7" y="37.2" class="st1"/><rect width="57.3" height="1.8" x="155.7" y="43.4" class="st1"/><rect width="57.3" height="1.8" x="155.7" y="49.6" class="st1"/><rect width="57.3" height="1.8" x="155.7" y="55.8" class="st1"/><rect width="57.3" height="7" x="155.7" y="27.4" class="st1"/></g><g><rect width="57.3" height="1.8" x="155.7" y="78.2" class="st1"/><rect width="57.3" height="1.8" x="155.7" y="84.4" class="st1"/><rect width="57.3" height="1.8" x="155.7" y="90.6" class="st1"/><rect width="57.3" height="1.8" x="155.7" y="96.8" class="st1"/><rect width="57.3" height="7" x="155.7" y="68.4" class="st1"/></g><g><rect width="57.3" height="1.8" x="155.7" y="116.7" class="st1"/><rect width="57.3" height="1.8" x="155.7" y="122.9" class="st1"/><rect width="57.3" height="1.8" x="155.7" y="129.1" class="st1"/><rect width="57.3" height="1.8" x="155.7" y="135.3" class="st1"/><rect width="57.3" height="7" x="155.7" y="106.9" class="st1"/></g></svg>