<svg xmlns="http://www.w3.org/2000/svg" width="13" height="13" version="1.1"><g><path fill="#36b" d="m41.47,259.4,7,0,0,7-2-2-3,2,0-1,3-2.25,1,1,0-3.75-3.75,0,1,1-2.25,3-1,0,2-3z" opacity="1" transform="translate(-36.467808,-258.39005)"/><path fill="#36b" d="m43.47,261.4-5,0,0,8,8,0,0-5-1,0,0,4-6,0,0-6,4,0z" opacity="1" transform="translate(-36.467808,-258.39005)"/><path fill="#15a5ea" d="m40.55,263.9c0-0.6213,0.6213-0.6213,0.6213-0.6213,1.864,0.6213,3.107,1.864,3.728,3.728,0,0,0,0.6213-0.6213,0.6213-1.243-1.864-1.864-2.485-3.728-3.728z" opacity="1" transform="translate(-36.467808,-258.39005)"/></g></svg>