<svg xmlns="http://www.w3.org/2000/svg" width="13" height="13" version="1.1"><g><path fill="#3465ba" d="m137.4,376.9,0,7.5,1-0.9872,0-6.013,2,0,2,1,4-0.0002,0,2,1,0,0-2.5-0.5-0.5002-4.5,0.0002-2-1-2.5,0z" opacity="1" transform="translate(-136.35715,-374.43362)"/><path fill="#16a4e8" d="m142.4,379.4-1-0.0001-2.5,0-0.5,0.5-1,4.5,10-0.0001,0-4.5-0.5-0.5zm0,1,4-0.0001,0,3-7.75-0.0001,0.75-3,2,0z" opacity="1" transform="translate(-136.35715,-374.43362)"/><path fill="#3465ba" d="m138.4,385.4,0,1,8,0,0-1z" opacity="1" transform="translate(-136.35715,-374.43362)"/><path fill="#3465ba" d="m141.4,383.9,0,2,2,0,0-2c0-0.5-2-0.5-2,0z" opacity="1" transform="translate(-136.35715,-374.43362)"/></g></svg>